<mxfile host="app.diagrams.net" modified="2021-03-13T13:42:10.803Z" agent="5.0 (Macintosh; Intel Mac OS X 10_15_6) AppleWebKit/537.36 (KHTML, like Gecko) Chrome/88.0.4324.192 Safari/537.36" etag="m6jrznozxgHXwTxkiQDr" version="13.11.0" type="github">
  <diagram id="C5RBs43oDa-KdzZeNtuy" name="Page-1">
    <mxGraphModel dx="1426" dy="826" grid="1" gridSize="10" guides="1" tooltips="1" connect="1" arrows="1" fold="1" page="1" pageScale="1" pageWidth="827" pageHeight="1169" math="0" shadow="0">
      <root>
        <mxCell id="WIyWlLk6GJQsqaUBKTNV-0" />
        <mxCell id="WIyWlLk6GJQsqaUBKTNV-1" parent="WIyWlLk6GJQsqaUBKTNV-0" />
        <mxCell id="3cW4uc8DRrEpIiB1ZtD9-0" value="" style="rounded=0;whiteSpace=wrap;html=1;" parent="WIyWlLk6GJQsqaUBKTNV-1" vertex="1">
          <mxGeometry x="40" y="610" width="200" height="120" as="geometry" />
        </mxCell>
        <mxCell id="3cW4uc8DRrEpIiB1ZtD9-5" value="&lt;font style=&quot;font-size: 10px&quot;&gt;www/redtetris.com&lt;/font&gt;" style="rounded=1;whiteSpace=wrap;html=1;" parent="WIyWlLk6GJQsqaUBKTNV-1" vertex="1">
          <mxGeometry x="50" y="620" width="180" height="10" as="geometry" />
        </mxCell>
        <mxCell id="3cW4uc8DRrEpIiB1ZtD9-45" style="edgeStyle=orthogonalEdgeStyle;rounded=0;orthogonalLoop=1;jettySize=auto;html=1;entryX=-0.018;entryY=0.18;entryDx=0;entryDy=0;entryPerimeter=0;" parent="WIyWlLk6GJQsqaUBKTNV-1" source="3cW4uc8DRrEpIiB1ZtD9-13" target="3cW4uc8DRrEpIiB1ZtD9-24" edge="1">
          <mxGeometry relative="1" as="geometry">
            <mxPoint x="530" y="56" as="targetPoint" />
            <Array as="points">
              <mxPoint x="20" y="770" />
              <mxPoint x="20" y="261" />
            </Array>
          </mxGeometry>
        </mxCell>
        <mxCell id="3cW4uc8DRrEpIiB1ZtD9-13" value="" style="rounded=0;whiteSpace=wrap;html=1;" parent="WIyWlLk6GJQsqaUBKTNV-1" vertex="1">
          <mxGeometry x="80" y="750" width="120" height="40" as="geometry" />
        </mxCell>
        <mxCell id="3cW4uc8DRrEpIiB1ZtD9-14" value="" style="rounded=0;whiteSpace=wrap;html=1;" parent="WIyWlLk6GJQsqaUBKTNV-1" vertex="1">
          <mxGeometry x="113.75" y="730" width="52.5" height="20" as="geometry" />
        </mxCell>
        <mxCell id="3cW4uc8DRrEpIiB1ZtD9-15" value="sign-in" style="rounded=0;whiteSpace=wrap;html=1;" parent="WIyWlLk6GJQsqaUBKTNV-1" vertex="1">
          <mxGeometry x="50" y="650" width="80" height="20" as="geometry" />
        </mxCell>
        <mxCell id="3cW4uc8DRrEpIiB1ZtD9-17" value="login" style="rounded=0;whiteSpace=wrap;html=1;" parent="WIyWlLk6GJQsqaUBKTNV-1" vertex="1">
          <mxGeometry x="150" y="650" width="80" height="20" as="geometry" />
        </mxCell>
        <mxCell id="3cW4uc8DRrEpIiB1ZtD9-67" style="edgeStyle=orthogonalEdgeStyle;rounded=0;orthogonalLoop=1;jettySize=auto;html=1;exitX=0;exitY=0;exitDx=220;exitDy=95;exitPerimeter=0;entryX=0.5;entryY=1;entryDx=0;entryDy=0;" parent="WIyWlLk6GJQsqaUBKTNV-1" source="3cW4uc8DRrEpIiB1ZtD9-24" target="3cW4uc8DRrEpIiB1ZtD9-13" edge="1">
          <mxGeometry relative="1" as="geometry">
            <mxPoint x="140" y="810" as="targetPoint" />
            <Array as="points">
              <mxPoint x="780" y="325" />
              <mxPoint x="780" y="890" />
              <mxPoint x="140" y="890" />
            </Array>
          </mxGeometry>
        </mxCell>
        <mxCell id="3cW4uc8DRrEpIiB1ZtD9-24" value="" style="shape=cube;whiteSpace=wrap;html=1;boundedLbl=1;backgroundOutline=1;darkOpacity=0.05;darkOpacity2=0.1;" parent="WIyWlLk6GJQsqaUBKTNV-1" vertex="1">
          <mxGeometry x="540" y="230" width="220" height="170" as="geometry" />
        </mxCell>
        <mxCell id="3cW4uc8DRrEpIiB1ZtD9-55" style="edgeStyle=orthogonalEdgeStyle;rounded=0;orthogonalLoop=1;jettySize=auto;html=1;exitX=0.75;exitY=1;exitDx=0;exitDy=0;entryX=0.667;entryY=0;entryDx=0;entryDy=0;entryPerimeter=0;" parent="WIyWlLk6GJQsqaUBKTNV-1" source="3cW4uc8DRrEpIiB1ZtD9-28" target="3cW4uc8DRrEpIiB1ZtD9-29" edge="1">
          <mxGeometry relative="1" as="geometry">
            <Array as="points">
              <mxPoint x="665" y="280" />
              <mxPoint x="665" y="300" />
              <mxPoint x="685" y="300" />
            </Array>
          </mxGeometry>
        </mxCell>
        <mxCell id="3cW4uc8DRrEpIiB1ZtD9-28" value="Routes" style="rounded=0;whiteSpace=wrap;html=1;" parent="WIyWlLk6GJQsqaUBKTNV-1" vertex="1">
          <mxGeometry x="605" y="260" width="120" height="20" as="geometry" />
        </mxCell>
        <mxCell id="3cW4uc8DRrEpIiB1ZtD9-56" style="edgeStyle=orthogonalEdgeStyle;rounded=0;orthogonalLoop=1;jettySize=auto;html=1;exitX=1;exitY=0.5;exitDx=0;exitDy=0;entryX=1;entryY=0.75;entryDx=0;entryDy=0;" parent="WIyWlLk6GJQsqaUBKTNV-1" source="3cW4uc8DRrEpIiB1ZtD9-29" target="3cW4uc8DRrEpIiB1ZtD9-30" edge="1">
          <mxGeometry relative="1" as="geometry" />
        </mxCell>
        <mxCell id="3cW4uc8DRrEpIiB1ZtD9-29" value="Controllers" style="rounded=0;whiteSpace=wrap;html=1;" parent="WIyWlLk6GJQsqaUBKTNV-1" vertex="1">
          <mxGeometry x="605" y="310" width="120" height="20" as="geometry" />
        </mxCell>
        <mxCell id="3cW4uc8DRrEpIiB1ZtD9-57" style="edgeStyle=orthogonalEdgeStyle;rounded=0;orthogonalLoop=1;jettySize=auto;html=1;exitX=0;exitY=0.5;exitDx=0;exitDy=0;entryX=0;entryY=0.5;entryDx=0;entryDy=0;" parent="WIyWlLk6GJQsqaUBKTNV-1" source="3cW4uc8DRrEpIiB1ZtD9-30" target="3cW4uc8DRrEpIiB1ZtD9-29" edge="1">
          <mxGeometry relative="1" as="geometry" />
        </mxCell>
        <mxCell id="3cW4uc8DRrEpIiB1ZtD9-58" style="edgeStyle=orthogonalEdgeStyle;rounded=0;orthogonalLoop=1;jettySize=auto;html=1;exitX=0.75;exitY=1;exitDx=0;exitDy=0;entryX=0.675;entryY=-0.012;entryDx=0;entryDy=0;entryPerimeter=0;" parent="WIyWlLk6GJQsqaUBKTNV-1" source="3cW4uc8DRrEpIiB1ZtD9-30" target="3cW4uc8DRrEpIiB1ZtD9-38" edge="1">
          <mxGeometry relative="1" as="geometry" />
        </mxCell>
        <mxCell id="3cW4uc8DRrEpIiB1ZtD9-30" value="Models" style="rounded=0;whiteSpace=wrap;html=1;" parent="WIyWlLk6GJQsqaUBKTNV-1" vertex="1">
          <mxGeometry x="605" y="360" width="120" height="20" as="geometry" />
        </mxCell>
        <mxCell id="3cW4uc8DRrEpIiB1ZtD9-59" style="edgeStyle=orthogonalEdgeStyle;rounded=0;orthogonalLoop=1;jettySize=auto;html=1;entryX=0.067;entryY=1.05;entryDx=0;entryDy=0;entryPerimeter=0;" parent="WIyWlLk6GJQsqaUBKTNV-1" source="3cW4uc8DRrEpIiB1ZtD9-38" target="3cW4uc8DRrEpIiB1ZtD9-30" edge="1">
          <mxGeometry relative="1" as="geometry" />
        </mxCell>
        <mxCell id="3cW4uc8DRrEpIiB1ZtD9-38" value="" style="shape=cylinder3;whiteSpace=wrap;html=1;boundedLbl=1;backgroundOutline=1;size=15;" parent="WIyWlLk6GJQsqaUBKTNV-1" vertex="1">
          <mxGeometry x="560" y="630" width="200" height="160" as="geometry" />
        </mxCell>
        <mxCell id="3cW4uc8DRrEpIiB1ZtD9-46" value="MongoDB" style="text;html=1;strokeColor=none;fillColor=none;align=center;verticalAlign=middle;whiteSpace=wrap;rounded=0;" parent="WIyWlLk6GJQsqaUBKTNV-1" vertex="1">
          <mxGeometry x="630" y="700" width="60" height="20" as="geometry" />
        </mxCell>
        <mxCell id="3cW4uc8DRrEpIiB1ZtD9-47" value="API" style="text;html=1;strokeColor=none;fillColor=none;align=center;verticalAlign=middle;whiteSpace=wrap;rounded=0;" parent="WIyWlLk6GJQsqaUBKTNV-1" vertex="1">
          <mxGeometry x="640" y="230" width="40" height="20" as="geometry" />
        </mxCell>
        <mxCell id="3cW4uc8DRrEpIiB1ZtD9-60" value="" style="ellipse;shape=cloud;whiteSpace=wrap;html=1;" parent="WIyWlLk6GJQsqaUBKTNV-1" vertex="1">
          <mxGeometry x="340" y="460" width="190" height="110" as="geometry" />
        </mxCell>
        <mxCell id="3cW4uc8DRrEpIiB1ZtD9-62" value="" style="endArrow=classic;html=1;entryX=1;entryY=0.5;entryDx=0;entryDy=0;exitX=0.353;exitY=0.891;exitDx=0;exitDy=0;exitPerimeter=0;" parent="WIyWlLk6GJQsqaUBKTNV-1" source="3cW4uc8DRrEpIiB1ZtD9-60" target="3cW4uc8DRrEpIiB1ZtD9-13" edge="1">
          <mxGeometry width="50" height="50" relative="1" as="geometry">
            <mxPoint x="400" y="597.5" as="sourcePoint" />
            <mxPoint x="240" y="742.5" as="targetPoint" />
            <Array as="points">
              <mxPoint x="300" y="690" />
              <mxPoint x="240" y="740" />
            </Array>
          </mxGeometry>
        </mxCell>
        <mxCell id="3cW4uc8DRrEpIiB1ZtD9-65" value="socket.io" style="text;html=1;strokeColor=none;fillColor=none;align=center;verticalAlign=middle;whiteSpace=wrap;rounded=0;" parent="WIyWlLk6GJQsqaUBKTNV-1" vertex="1">
          <mxGeometry x="400" y="510" width="70" height="20" as="geometry" />
        </mxCell>
        <mxCell id="3cW4uc8DRrEpIiB1ZtD9-66" value="" style="endArrow=classic;startArrow=classic;html=1;exitX=0.842;exitY=0.182;exitDx=0;exitDy=0;exitPerimeter=0;" parent="WIyWlLk6GJQsqaUBKTNV-1" source="3cW4uc8DRrEpIiB1ZtD9-60" target="3cW4uc8DRrEpIiB1ZtD9-24" edge="1">
          <mxGeometry width="50" height="50" relative="1" as="geometry">
            <mxPoint x="490" y="240" as="sourcePoint" />
            <mxPoint x="550" y="210" as="targetPoint" />
          </mxGeometry>
        </mxCell>
        <mxCell id="3cW4uc8DRrEpIiB1ZtD9-16" value="start new game" style="rounded=0;whiteSpace=wrap;html=1;" parent="WIyWlLk6GJQsqaUBKTNV-1" vertex="1">
          <mxGeometry x="50" y="690" width="180" height="20" as="geometry" />
        </mxCell>
        <mxCell id="3cW4uc8DRrEpIiB1ZtD9-70" value="" style="endArrow=classic;html=1;entryX=0.489;entryY=0.973;entryDx=0;entryDy=0;entryPerimeter=0;exitX=1;exitY=1;exitDx=0;exitDy=0;" parent="WIyWlLk6GJQsqaUBKTNV-1" source="3cW4uc8DRrEpIiB1ZtD9-13" target="3cW4uc8DRrEpIiB1ZtD9-60" edge="1">
          <mxGeometry width="50" height="50" relative="1" as="geometry">
            <mxPoint x="200" y="790" as="sourcePoint" />
            <mxPoint x="250" y="740" as="targetPoint" />
            <Array as="points">
              <mxPoint x="240" y="760" />
              <mxPoint x="340" y="680" />
            </Array>
          </mxGeometry>
        </mxCell>
        <mxCell id="FrAV85wP2pc38k_fbOrG-0" value="edesouza" style="text;html=1;strokeColor=none;fillColor=none;align=center;verticalAlign=middle;whiteSpace=wrap;rounded=0;" vertex="1" parent="WIyWlLk6GJQsqaUBKTNV-1">
          <mxGeometry x="713" y="864" width="70" height="20" as="geometry" />
        </mxCell>
        <mxCell id="FrAV85wP2pc38k_fbOrG-3" value="request" style="text;html=1;strokeColor=none;fillColor=none;align=center;verticalAlign=middle;whiteSpace=wrap;rounded=0;" vertex="1" parent="WIyWlLk6GJQsqaUBKTNV-1">
          <mxGeometry x="300" y="240" width="40" height="20" as="geometry" />
        </mxCell>
        <mxCell id="FrAV85wP2pc38k_fbOrG-4" value="response" style="text;html=1;strokeColor=none;fillColor=none;align=center;verticalAlign=middle;whiteSpace=wrap;rounded=0;" vertex="1" parent="WIyWlLk6GJQsqaUBKTNV-1">
          <mxGeometry x="400" y="870" width="60" height="20" as="geometry" />
        </mxCell>
        <mxCell id="FrAV85wP2pc38k_fbOrG-6" value="" style="aspect=fixed;html=1;points=[];align=center;image;fontSize=12;image=img/lib/mscae/Docker.svg;" vertex="1" parent="WIyWlLk6GJQsqaUBKTNV-1">
          <mxGeometry x="340" y="131.6" width="120" height="98.4" as="geometry" />
        </mxCell>
      </root>
    </mxGraphModel>
  </diagram>
</mxfile>
